<svg width="700" height="400" viewBox="0 0 700 400" fill="none" xmlns="http://www.w3.org/2000/svg">
<g clip-path="url(#clip0_72_2)">
<rect width="700" height="400" fill="#F9F9F9"/>
<rect x="442" width="258" height="400" fill="#27AAE1"/>
<ellipse cx="613.5" cy="81.5" rx="123.5" ry="124.5" fill="#E74A99"/>
<path d="M143 213.064V169.215H151.745V205.381H173.107V213.064H143Z" fill="#282828"/>
<path d="M193.431 213.813C190.1 213.813 187.123 213.064 184.499 211.565C181.917 210.066 179.877 208.046 178.378 205.506C176.879 202.966 176.129 200.176 176.129 197.136C176.129 194.804 176.566 192.639 177.441 190.64C178.315 188.599 179.523 186.809 181.064 185.268C182.646 183.727 184.499 182.52 186.623 181.645C188.747 180.771 191.058 180.334 193.556 180.334C196.929 180.334 199.907 181.083 202.488 182.582C205.112 184.081 207.173 186.101 208.672 188.641C210.213 191.14 210.983 193.93 210.983 197.011C210.983 199.426 210.525 201.654 209.609 203.695C208.693 205.735 207.423 207.505 205.799 209.004C204.216 210.503 202.363 211.69 200.24 212.564C198.116 213.397 195.846 213.813 193.431 213.813ZM193.556 206.568C195.347 206.568 196.908 206.131 198.241 205.256C199.615 204.382 200.677 203.236 201.426 201.821C202.218 200.363 202.613 198.802 202.613 197.136C202.613 195.387 202.218 193.805 201.426 192.389C200.635 190.931 199.553 189.765 198.178 188.891C196.846 187.975 195.263 187.517 193.431 187.517C191.641 187.517 190.058 187.954 188.684 188.828C187.352 189.661 186.311 190.806 185.561 192.264C184.853 193.68 184.499 195.262 184.499 197.011C184.499 198.802 184.895 200.426 185.686 201.883C186.477 203.299 187.56 204.444 188.934 205.319C190.308 206.151 191.849 206.568 193.556 206.568Z" fill="#282828"/>
<path d="M225.729 213.189L212.674 181.146H221.731L229.789 203.195L237.847 181.146H246.716L233.662 213.189H225.729Z" fill="#282828"/>
<path d="M250.347 213.064V181.083H258.842V213.064H250.347ZM254.532 176.648C253.117 176.648 251.888 176.211 250.847 175.337C249.848 174.462 249.348 173.275 249.348 171.776C249.348 170.277 249.827 169.09 250.785 168.216C251.784 167.341 253.033 166.904 254.532 166.904C256.031 166.904 257.281 167.341 258.28 168.216C259.28 169.049 259.779 170.235 259.779 171.776C259.779 173.275 259.28 174.462 258.28 175.337C257.281 176.211 256.031 176.648 254.532 176.648Z" fill="#282828"/>
<path d="M277.317 213.751C273.527 213.751 270.716 212.627 268.884 210.378C267.052 208.129 266.136 205.214 266.136 201.633V181.083H274.631V198.947C274.631 200.696 274.901 202.112 275.443 203.195C276.026 204.236 276.775 205.006 277.691 205.506C278.649 205.964 279.649 206.193 280.69 206.193C281.772 206.193 282.813 205.964 283.813 205.506C284.812 205.048 285.624 204.278 286.249 203.195C286.915 202.112 287.248 200.696 287.248 198.947V181.083H295.743V213.439L287.248 209.191C286.165 210.524 284.812 211.627 283.188 212.502C281.564 213.335 279.607 213.751 277.317 213.751Z" fill="#282828"/>
<path d="M302.802 213.064V181.146L311.234 185.268C312.442 183.644 313.879 182.436 315.544 181.645C317.21 180.812 319.042 180.396 321.041 180.396C323.04 180.396 324.872 180.833 326.538 181.708C328.245 182.582 329.536 183.998 330.41 185.955C331.66 184.165 333.18 182.79 334.97 181.833C336.802 180.875 338.905 180.396 341.279 180.396C343.694 180.396 345.693 180.937 347.275 182.02C348.899 183.103 350.128 184.56 350.961 186.392C351.793 188.183 352.21 190.203 352.21 192.451V213.064H343.715V195.137C343.715 192.639 343.194 190.806 342.153 189.64C341.112 188.474 339.738 187.891 338.031 187.891C336.657 187.891 335.491 188.245 334.533 188.953C333.617 189.62 332.909 190.494 332.409 191.577C331.951 192.659 331.722 193.846 331.722 195.137V213.064H323.227V195.137C323.227 192.972 322.769 191.223 321.853 189.89C320.937 188.558 319.5 187.891 317.543 187.891C316.294 187.891 315.19 188.204 314.233 188.828C313.275 189.453 312.546 190.307 312.046 191.389C311.547 192.472 311.297 193.721 311.297 195.137V213.064H302.802Z" fill="#282828"/>
<path d="M114.559 172.036C114.55 172.028 114.539 172.022 114.53 172.013C102.874 162.007 86.4062 160.232 72.7784 167.191C59.1599 174.146 51.4069 189.656 53.2758 204.688C54.5808 215.192 60.4377 224.403 68.8037 230.321C68.8037 230.321 91.8656 209.728 97.9896 202.42C103.733 195.561 116.275 173.656 116.275 173.656C115.72 173.098 115.148 172.558 114.558 172.037L114.559 172.036Z" fill="#E74A99"/>
<path d="M68.8044 230.321C72.7118 233.09 77.1115 235.088 81.7676 236.209C96.5375 239.745 112.463 233.323 120.912 220.803C130.87 206.041 128.681 186.104 116.275 173.656L92.6625 201.842C84.7093 211.334 76.7566 220.827 68.8044 230.32V230.321Z" fill="#27AAE1"/>
<path d="M90.0872 220.369C101.289 220.369 110.369 211.289 110.369 200.087C110.369 199.149 108.963 198.994 108.477 199.797C106.169 203.618 101.976 206.172 97.1859 206.172C89.9049 206.172 84.0026 200.27 84.0026 192.989C84.0026 188.199 86.5569 184.006 90.3777 181.697C91.1808 181.212 91.0257 179.805 90.0872 179.805C78.8858 179.805 69.8052 188.886 69.8052 200.087C69.8052 211.289 78.8858 220.369 90.0872 220.369Z" fill="white"/>
<path d="M578.601 299.24C666.27 292.005 731.476 215.068 724.24 127.399C723.634 120.054 712.525 119.748 709.245 126.348C693.644 157.742 662.476 180.443 624.989 183.537C568.003 188.24 517.996 145.857 513.292 88.8711C510.198 51.3837 527.482 16.9157 555.894 -3.62155C561.866 -7.93886 559.744 -18.8468 552.399 -18.2406C464.729 -11.005 399.524 65.9311 406.759 153.601C413.995 241.27 490.931 306.476 578.601 299.24Z" fill="#F9F9F9"/>
<path d="M143 235.038V225.182H144.456V233.75H149.272V235.038H143Z" fill="#282828"/>
<path d="M158.555 235.192C157.845 235.192 157.211 235.033 156.651 234.716C156.1 234.399 155.666 233.969 155.349 233.428C155.031 232.877 154.873 232.271 154.873 231.608C154.873 231.104 154.961 230.633 155.139 230.194C155.325 229.755 155.582 229.373 155.909 229.046C156.245 228.71 156.637 228.449 157.085 228.262C157.542 228.075 158.037 227.982 158.569 227.982C159.287 227.982 159.927 228.145 160.487 228.472C161.047 228.789 161.485 229.219 161.803 229.76C162.129 230.301 162.293 230.908 162.293 231.58C162.293 232.093 162.195 232.569 161.999 233.008C161.812 233.447 161.546 233.829 161.201 234.156C160.855 234.483 160.459 234.739 160.011 234.926C159.563 235.103 159.077 235.192 158.555 235.192ZM158.569 234.002C159.017 234.002 159.413 233.89 159.759 233.666C160.113 233.442 160.389 233.148 160.585 232.784C160.79 232.42 160.893 232.023 160.893 231.594C160.893 231.155 160.795 230.754 160.599 230.39C160.403 230.017 160.127 229.718 159.773 229.494C159.427 229.27 159.021 229.158 158.555 229.158C158.097 229.158 157.696 229.27 157.351 229.494C157.005 229.709 156.739 229.998 156.553 230.362C156.366 230.726 156.273 231.132 156.273 231.58C156.273 232.037 156.371 232.448 156.567 232.812C156.772 233.176 157.047 233.465 157.393 233.68C157.747 233.895 158.139 234.002 158.569 234.002Z" fill="#282828"/>
<path d="M170.464 235.052L167.608 228.164H169.12L171.164 233.456L173.208 228.164H174.678L171.808 235.052H170.464Z" fill="#282828"/>
<path d="M183.583 235.206C182.901 235.206 182.29 235.052 181.749 234.744C181.207 234.436 180.778 234.011 180.461 233.47C180.153 232.929 179.999 232.313 179.999 231.622C179.999 230.931 180.139 230.315 180.419 229.774C180.699 229.223 181.091 228.789 181.595 228.472C182.108 228.145 182.696 227.982 183.359 227.982C183.863 227.982 184.311 228.071 184.703 228.248C185.095 228.425 185.431 228.673 185.711 228.99C185.991 229.298 186.215 229.657 186.383 230.068C186.551 230.479 186.658 230.913 186.705 231.37L181.497 232.644C181.655 233.064 181.912 233.409 182.267 233.68C182.621 233.941 183.079 234.072 183.639 234.072C183.947 234.072 184.241 234.035 184.521 233.96C184.81 233.876 185.085 233.759 185.347 233.61C185.608 233.451 185.846 233.265 186.061 233.05V234.422C185.753 234.655 185.384 234.847 184.955 234.996C184.525 235.136 184.068 235.206 183.583 235.206ZM181.399 231.608L185.291 230.6C185.179 230.18 184.955 229.83 184.619 229.55C184.283 229.27 183.863 229.13 183.359 229.13C182.92 229.13 182.551 229.247 182.253 229.48C181.954 229.713 181.73 230.012 181.581 230.376C181.431 230.731 181.357 231.109 181.357 231.51L181.399 231.608Z" fill="#282828"/>
<path d="M192.471 235.038L196.097 230.656C196.657 229.984 197.059 229.415 197.301 228.948C197.544 228.472 197.665 228.052 197.665 227.688C197.665 227.445 197.609 227.217 197.497 227.002C197.395 226.787 197.222 226.615 196.979 226.484C196.737 226.344 196.419 226.274 196.027 226.274C195.486 226.274 195.052 226.433 194.725 226.75C194.399 227.058 194.198 227.473 194.123 227.996H192.625C192.728 227.305 192.924 226.741 193.213 226.302C193.512 225.863 193.899 225.537 194.375 225.322C194.851 225.107 195.402 225 196.027 225C196.429 225 196.816 225.061 197.189 225.182C197.563 225.294 197.894 225.467 198.183 225.7C198.482 225.933 198.715 226.223 198.883 226.568C199.061 226.904 199.149 227.291 199.149 227.73C199.149 228.075 199.079 228.425 198.939 228.78C198.809 229.125 198.599 229.508 198.309 229.928C198.029 230.339 197.661 230.819 197.203 231.37L195.201 233.778H199.331V235.038H192.471Z" fill="#282828"/>
<path d="M206.232 235.038V225.182H209.452C210.479 225.182 211.389 225.387 212.182 225.798C212.985 226.199 213.615 226.769 214.072 227.506C214.53 228.243 214.758 229.107 214.758 230.096C214.758 231.057 214.539 231.911 214.1 232.658C213.662 233.395 213.041 233.979 212.238 234.408C211.445 234.828 210.507 235.038 209.424 235.038H206.232ZM207.688 233.75H209.396C210.218 233.75 210.913 233.596 211.482 233.288C212.061 232.98 212.5 232.555 212.798 232.014C213.097 231.463 213.246 230.833 213.246 230.124C213.246 229.676 213.172 229.237 213.022 228.808C212.882 228.369 212.672 227.977 212.392 227.632C212.112 227.287 211.767 227.011 211.356 226.806C210.955 226.591 210.488 226.484 209.956 226.484H207.688V233.75Z" fill="#282828"/>
<path d="M230.238 235.038V225.182H231.68V235.038H230.238Z" fill="#282828"/>
<path d="M238.692 235.038V225.182H241.912C242.939 225.182 243.849 225.387 244.642 225.798C245.445 226.199 246.075 226.769 246.532 227.506C246.99 228.243 247.218 229.107 247.218 230.096C247.218 231.057 246.999 231.911 246.56 232.658C246.122 233.395 245.501 233.979 244.698 234.408C243.905 234.828 242.967 235.038 241.884 235.038H238.692ZM240.148 233.75H241.856C242.678 233.75 243.373 233.596 243.942 233.288C244.521 232.98 244.96 232.555 245.258 232.014C245.557 231.463 245.706 230.833 245.706 230.124C245.706 229.676 245.632 229.237 245.482 228.808C245.342 228.369 245.132 227.977 244.852 227.632C244.572 227.287 244.227 227.011 243.816 226.806C243.415 226.591 242.948 226.484 242.416 226.484H240.148V233.75Z" fill="#282828"/>
<path d="M253.873 235.038V225.182H260.565V226.456H255.329V229.41H260.145V230.642H255.329V233.764H260.705V235.038H253.873Z" fill="#282828"/>
</g>
<defs>
<clipPath id="clip0_72_2">
<rect width="700" height="400" fill="white"/>
</clipPath>
</defs>
</svg>
